<svg xmlns="http://www.w3.org/2000/svg" viewBox="0 0 16 16" shape-rendering="crispEdges">
  <rect x="6" y="0" width="4" height="2" fill="#000000"/>
  <rect x="5" y="2" width="2" height="2" fill="#F06449"/>
  <rect x="7" y="2" width="2" height="2" fill="#E28954"/>
  <rect x="4" y="2" width="1" height="2" fill="#000000"/>
  <rect x="9" y="2" width="1" height="2" fill="#000000"/>
  <rect x="3" y="4" width="1" height="6" fill="#000000"/>
  <rect x="4" y="4" width="1" height="6" fill="#CF3E22"/>
  <rect x="5" y="4" width="5" height="6" fill="#F06449"/>
  <rect x="10" y="4" width="1" height="6" fill="#E28954"/>
  <rect x="11" y="4" width="1" height="6" fill="#000000"/>
  <rect x="5" y="6" width="5" height="3" fill="#DFF8EB"/>
  <rect x="6" y="7" width="1" height="1" fill="#3D6084"/>
  <rect x="8" y="7" width="1" height="1" fill="#3D6084"/>
  <rect x="6" y="9" width="3" height="1" fill="#3D6084"/>
  <rect x="4" y="10" width="7" height="1" fill="#000000"/>
  <rect x="5" y="11" width="2" height="3" fill="#F06449"/>
  <rect x="8" y="11" width="2" height="3" fill="#F06449"/>
  <rect x="4" y="11" width="1" height="3" fill="#000000"/>
  <rect x="7" y="11" width="1" height="3" fill="#000000"/>
  <rect x="10" y="11" width="1" height="3" fill="#000000"/>
  <rect x="4" y="14" width="3" height="1" fill="#000000"/>
  <rect x="8" y="14" width="3" height="1" fill="#000000"/>
</svg>
